<svg width="174" height="40" viewBox="0 0 174 40" fill="none" xmlns="http://www.w3.org/2000/svg">
<g clip-path="url(#clip0_5_576)">
<path d="M168.139 11.1379C171.214 11.1379 173.707 8.6446 173.707 5.56895C173.707 2.4933 171.214 0 168.139 0C165.063 0 162.57 2.4933 162.57 5.56895C162.57 8.6446 165.063 11.1379 168.139 11.1379Z" fill="#F1614A"/>
<path d="M110.072 34.318L108.312 37.1439V39.0693H107.826V37.1439L106.066 34.318H106.598L108.075 36.7068L109.54 34.318H110.072Z" fill="white"/>
<path d="M109.891 37.3738C109.896 37.0325 110.002 36.7003 110.195 36.4189C110.388 36.1375 110.66 35.9195 110.977 35.7921C111.294 35.6647 111.641 35.6337 111.975 35.7029C112.309 35.7722 112.616 35.9385 112.856 36.1812C113.096 36.4239 113.259 36.732 113.325 37.067C113.39 37.402 113.356 37.7489 113.225 38.0642C113.094 38.3795 112.873 38.6492 112.59 38.8394C112.306 39.0296 111.973 39.1319 111.631 39.1334C111.398 39.1455 111.165 39.1082 110.947 39.0238C110.729 38.9394 110.531 38.8099 110.367 38.6437C110.202 38.4776 110.075 38.2785 109.993 38.0596C109.911 37.8408 109.876 37.607 109.891 37.3738ZM112.871 37.3738C112.871 36.5524 112.374 36.0136 111.631 36.0136C111.292 36.0446 110.976 36.2015 110.746 36.4535C110.516 36.7055 110.388 37.0344 110.388 37.3757C110.388 37.7169 110.516 38.0458 110.746 38.2978C110.976 38.5499 111.292 38.7068 111.631 38.7378C112.374 38.7378 112.871 38.1914 112.871 37.3738Z" fill="white"/>
<path d="M114.137 37.7732V35.6744H114.601V37.7279C114.617 37.9915 114.732 38.239 114.925 38.4199C115.117 38.6009 115.371 38.7017 115.635 38.7017C115.899 38.7017 116.153 38.6009 116.345 38.4199C116.537 38.239 116.653 37.9915 116.669 37.7279V35.6744H117.133V37.7732C117.133 38.587 116.534 39.1334 115.626 39.1334C114.717 39.1334 114.137 38.5946 114.137 37.7732Z" fill="white"/>
<path d="M122.758 34.7249H121.232V39.0693H120.742V34.7249H119.209V34.318H122.758V34.7249Z" fill="white"/>
<path d="M126.443 36.9254V39.0618H125.98V37.0233C125.963 36.749 125.843 36.4913 125.643 36.3028C125.443 36.1144 125.179 36.0094 124.904 36.0094C124.629 36.0094 124.365 36.1144 124.165 36.3028C123.965 36.4913 123.844 36.749 123.828 37.0233V39.0693H123.368V34.0618H123.828V36.2396C123.952 36.0309 124.132 35.8613 124.348 35.75C124.564 35.6388 124.807 35.5904 125.049 35.6104C125.229 35.5943 125.411 35.6167 125.582 35.676C125.753 35.7353 125.91 35.8302 126.042 35.9545C126.173 36.0787 126.277 36.2295 126.346 36.3969C126.416 36.5642 126.449 36.7444 126.443 36.9254Z" fill="white"/>
<path d="M127.374 34.5102C127.373 34.4482 127.391 34.3873 127.425 34.3354C127.459 34.2835 127.507 34.2428 127.564 34.2186C127.621 34.1943 127.684 34.1876 127.745 34.1992C127.806 34.2109 127.862 34.2403 127.906 34.2839C127.95 34.3275 127.981 34.3832 127.993 34.444C128.005 34.5048 127.999 34.5678 127.976 34.6252C127.952 34.6826 127.912 34.7316 127.861 34.7662C127.809 34.8007 127.749 34.8191 127.687 34.8191C127.646 34.8202 127.605 34.8129 127.567 34.7978C127.528 34.7826 127.494 34.76 127.464 34.7311C127.435 34.7023 127.412 34.6679 127.397 34.6299C127.381 34.5919 127.373 34.5512 127.374 34.5102ZM127.457 35.6744H127.916V39.0656H127.457V35.6744Z" fill="white"/>
<path d="M132.053 36.9254V39.0618H131.59V37.0233C131.574 36.749 131.453 36.4913 131.253 36.3028C131.053 36.1144 130.789 36.0094 130.514 36.0094C130.24 36.0094 129.975 36.1144 129.775 36.3028C129.575 36.4913 129.455 36.749 129.439 37.0233V39.0693H128.975V35.6782H129.427V36.2472C129.553 36.0384 129.735 35.8686 129.952 35.7569C130.169 35.6451 130.412 35.5957 130.656 35.6141C130.836 35.5982 131.017 35.6204 131.188 35.6795C131.359 35.7386 131.516 35.8331 131.648 35.9569C131.78 36.0807 131.884 36.2309 131.954 36.3978C132.024 36.5647 132.058 36.7445 132.053 36.9254Z" fill="white"/>
<path d="M134.209 37.4793H133.519V39.0693H133.06V34.0618H133.519V37.0761H134.209L135.512 35.6594H136.096L134.589 37.2645L136.168 39.0542H135.577L134.209 37.4793Z" fill="white"/>
<path d="M136.729 38.5494H137.279L136.775 40H136.307L136.729 38.5494Z" fill="white"/>
<path d="M146.232 34.318L144.537 39.0693H144.073L142.743 35.0414L141.417 39.0806H140.957L139.258 34.3293H139.789L141.221 38.425L142.525 34.3293H142.992L144.284 38.4325L145.712 34.3368L146.232 34.318Z" fill="white"/>
<path d="M149.506 37.5433H146.797C146.858 38.2969 147.253 38.7603 147.928 38.7603C148.144 38.7591 148.356 38.7061 148.548 38.6058C148.739 38.5055 148.904 38.3608 149.028 38.1838L149.378 38.3835C149.22 38.6212 149.003 38.8149 148.75 38.9467C148.496 39.0784 148.213 39.1439 147.928 39.1371C146.959 39.1371 146.304 38.4325 146.304 37.3737C146.304 36.315 146.948 35.6141 147.916 35.6141C148.885 35.6141 149.514 36.2999 149.514 37.3323C149.515 37.4027 149.513 37.4732 149.506 37.5433ZM146.797 37.2155H149.032C148.994 36.4619 148.572 35.9834 147.901 35.9834C147.231 35.9834 146.843 36.4581 146.797 37.2155Z" fill="white"/>
<path d="M156.055 36.7068C156.055 38.1198 155.136 39.0693 153.749 39.0693H152.136V34.318H153.749C155.136 34.318 156.055 35.2675 156.055 36.7068ZM155.546 36.7068C155.546 35.5124 154.815 34.7249 153.711 34.7249H152.626V38.6661H153.73C154.815 38.6661 155.546 37.8749 155.546 36.7068Z" fill="white"/>
<path d="M156.843 34.5102C156.842 34.4482 156.86 34.3873 156.893 34.3354C156.927 34.2835 156.976 34.2428 157.033 34.2186C157.09 34.1943 157.153 34.1876 157.214 34.1992C157.275 34.2109 157.331 34.2403 157.375 34.2839C157.419 34.3275 157.449 34.3832 157.462 34.444C157.474 34.5048 157.468 34.5678 157.445 34.6252C157.421 34.6826 157.381 34.7316 157.329 34.7662C157.278 34.8007 157.217 34.8191 157.155 34.8191C157.114 34.8196 157.074 34.812 157.036 34.7967C156.998 34.7814 156.963 34.7587 156.934 34.73C156.905 34.7012 156.882 34.667 156.866 34.6293C156.851 34.5915 156.843 34.5511 156.843 34.5102ZM156.925 35.6744H157.389V39.0656H156.925V35.6744Z" fill="white"/>
<path d="M161.669 34.0618V39.0693H161.221V38.3383C161.101 38.5913 160.908 38.8024 160.667 38.9442C160.426 39.086 160.147 39.1519 159.868 39.1334C158.919 39.1334 158.237 38.4325 158.237 37.3813C158.237 36.33 158.919 35.6104 159.868 35.6104C160.147 35.5918 160.426 35.6577 160.667 35.7995C160.908 35.9413 161.101 36.1524 161.221 36.4054V34.0618H161.669ZM161.206 37.3737C161.206 36.5599 160.708 36.0135 159.962 36.0135C159.216 36.0135 158.711 36.5599 158.711 37.3813C158.694 37.5547 158.714 37.7298 158.77 37.895C158.825 38.0602 158.915 38.2118 159.033 38.3399C159.151 38.468 159.295 38.5696 159.455 38.6382C159.615 38.7068 159.788 38.7407 159.962 38.7377C160.708 38.7377 161.206 38.1914 161.206 37.3737Z" fill="white"/>
<path d="M162.573 38.7867C162.573 38.6948 162.61 38.6066 162.675 38.5416C162.74 38.4766 162.828 38.4401 162.92 38.4401C162.989 38.4401 163.056 38.4604 163.113 38.4985C163.17 38.5366 163.214 38.5907 163.24 38.6541C163.267 38.7174 163.273 38.7871 163.26 38.8543C163.247 38.9216 163.214 38.9833 163.165 39.0318C163.117 39.0803 163.055 39.1133 162.988 39.1267C162.921 39.1401 162.851 39.1332 162.787 39.107C162.724 39.0807 162.67 39.0363 162.632 38.9793C162.594 38.9223 162.573 38.8553 162.573 38.7867Z" fill="white"/>
<path d="M0 29.1485V7.15903H5.07913V9.1937C7.11379 7.02339 8.17634 6.55617 10.3542 6.55617C12.8485 6.55617 14.8342 7.66393 16.266 9.83424C16.9919 8.79911 17.9614 7.9586 19.0891 7.3869C20.2167 6.8152 21.4677 6.5299 22.7317 6.55617C27.6752 6.55617 30.1696 9.57049 30.1696 15.5614V29.1259H25.0339V16.9556C25.0339 12.6602 24.0656 11.1342 21.7069 11.1342C18.8922 11.1342 17.7091 13.1198 17.7091 17.7845V29.1485H12.5622V17.0008C12.5622 13.0746 11.4544 11.1342 9.17106 11.1342C6.35644 11.1342 5.06029 13.1651 5.06029 17.7845V29.1485H0Z" fill="white"/>
<path d="M54.0429 0V24.3632H57.7355V29.1183H54.0429V34.0618H48.7679V29.1183H31.688L54.0429 0ZM40.7875 24.3632H48.7754L48.6737 13.7754L40.7875 24.3632Z" fill="#F1614A"/>
<path d="M86.1455 9.93218C87.7851 8.28643 89.8765 7.16446 92.1544 6.70847C94.4324 6.25248 96.7944 6.48298 98.9412 7.37076C101.088 8.25855 102.923 9.76366 104.214 11.6954C105.504 13.6271 106.192 15.8984 106.191 18.2216C106.218 19.7602 105.929 21.2881 105.341 22.7102C104.753 24.1324 103.879 25.4184 102.773 26.4883C101.667 27.5787 100.353 28.4352 98.9085 29.0068C97.4643 29.5784 95.9197 29.8534 94.367 29.8154C92.8374 29.8436 91.3183 29.5572 89.904 28.9738C88.4897 28.3905 87.2104 27.5227 86.1455 26.4243C83.8847 24.1635 82.7732 21.3414 82.7732 18.0181C82.7509 16.5111 83.0387 15.0156 83.6188 13.6246C84.199 12.2336 85.059 10.9767 86.1455 9.93218ZM94.4612 25.2675C98.3873 25.2675 101.017 22.4491 101.017 18.2027C101.017 13.9563 98.3798 11.1341 94.4612 11.1341C90.5426 11.1341 87.9465 14.043 87.9465 18.1085C87.9465 22.4981 90.535 25.2675 94.4612 25.2675Z" fill="white"/>
<path d="M109.763 6.56366H114.846V19.171C114.846 22.8221 116.277 24.6684 119.141 24.6684C122.005 24.6684 123.482 22.8221 123.482 19.171V6.56366H128.561V19.3105C128.561 25.4521 125.188 29.1937 119.141 29.1937C113.414 29.1937 109.763 25.8025 109.763 19.3105V6.56366Z" fill="white"/>
<path d="M144.231 7.78446H138.282V6.56366H133.199V28.5493H138.282V17.1401C138.282 16.9367 138.282 16.7445 138.282 16.5524V12.5697H144.22L144.231 7.78446Z" fill="white"/>
<path d="M153.983 19.7588C149.329 18.4627 147.457 16.1605 147.792 12.4642C147.939 10.7837 148.753 9.39335 150.335 8.28935C151.923 7.13559 153.844 6.52986 155.806 6.56366C160.222 6.56366 163.719 8.72266 163.964 13.1839H159.261C159.069 11.6013 157.679 10.7837 155.998 10.7837C154.702 10.7837 153.263 11.266 152.833 12.0309C152.649 12.3295 152.535 12.6667 152.502 13.0163C152.468 13.3659 152.516 13.7185 152.641 14.0467C152.877 14.7651 153.789 15.3416 155.377 15.7762L158.832 16.639C162.717 17.5998 164.683 19.7588 164.683 23.165C164.683 27.3888 160.991 29.9472 155.761 29.9472C153.613 29.9715 151.517 29.278 149.808 27.9766C148.977 27.3515 148.305 26.5392 147.846 25.6056C147.388 24.672 147.156 23.6435 147.17 22.6036H151.729C151.967 24.5704 153.613 25.8176 156.142 25.8176C158.448 25.8176 160.124 24.8116 160.124 23.1311C160.124 21.8349 159.069 20.9721 157.008 20.4936L153.983 19.7588Z" fill="white"/>
<path d="M77.1364 6.56366L70.8553 19.2163L64.1597 6.56366H58.2441L68.1311 24.4913L62.9239 34.2351H68.5757L82.8447 6.56366H77.1364Z" fill="white"/>
<path d="M165.682 3.24042H166.778V8.11231H165.682V3.24042Z" fill="white"/>
<path d="M171.515 3.24042V4.17486H170.045V8.11231H168.949V4.17486H167.479V3.24042H171.515Z" fill="white"/>
</g>
<defs>
<clipPath id="clip0_5_576">
<rect width="173.708" height="40" fill="white"/>
</clipPath>
</defs>
</svg>
